<svg width="949" height="1204" fill="none" xmlns="http://www.w3.org/2000/svg"><g opacity=".15"><circle cx="474.5" cy="474.5" r="474.5" fill="#36536B"/><circle cx="474.5" cy="474.5" r="474.5" fill="#36536B"/><mask id="a" style="mask-type:alpha" maskUnits="userSpaceOnUse" x="0" y="0" width="949" height="949"><circle cx="474.5" cy="474.5" r="474.5" fill="#fff"/></mask></g><g filter="url(#b)"><path fill-rule="evenodd" clip-rule="evenodd" d="M417.629 799.342h115.612c11.088 0 20.077 8.541 20.077 19.077v261.161c0 10.54-8.989 19.08-20.077 19.08H417.629c-11.088 0-20.077-8.54-20.077-19.08V818.419c0-10.536 8.989-19.077 20.077-19.077Z" fill="#213648"/></g><path opacity=".596" fill-rule="evenodd" clip-rule="evenodd" d="M533.688 799H417.113c-5.443.329-10.462 2.794-15.058 7.394 2.956-2.56 8.228-5.987 15.198-5.987h116.295c6.971 0 12.243 3.427 15.199 5.987-4.597-4.6-9.616-7.065-15.059-7.394Z" fill="url(#c)" fill-opacity=".65"/><path opacity=".75" fill-rule="evenodd" clip-rule="evenodd" d="M550.163 1076.6V819.989c0-6.885-2.549-9.43-4.071-11.065-1.521-1.634-1.585-2.468.6-1.234 2.186 1.234 6.557 4.828 6.557 12.299V1076.6c0 7.47-4.371 11.07-6.557 12.3-2.185 1.24-2.121.4-.6-1.23 1.522-1.64 4.071-4.18 4.071-11.07Z" fill="url(#d)"/><path opacity=".75" fill-rule="evenodd" clip-rule="evenodd" d="M400.638 1076.6V819.989c0-6.885 2.55-9.43 4.071-11.065 1.521-1.634 1.586-2.468-.6-1.234-2.185 1.234-6.557 4.828-6.557 12.299V1076.6c0 7.47 4.372 11.07 6.557 12.3 2.186 1.24 2.121.4.6-1.23-1.521-1.64-4.071-4.18-4.071-11.07Z" fill="url(#e)"/><path fill-rule="evenodd" clip-rule="evenodd" d="M396 861.435a1.501 1.501 0 1 1 3.001 0v35.609a1.5 1.5 0 0 1-3.001 0v-35.609ZM551.696 892.927a1.501 1.501 0 1 1 3.002 0v25.168a1.501 1.501 0 1 1-3.002 0v-25.168Z" fill="#2E423C"/><path fill-rule="evenodd" clip-rule="evenodd" d="M461.701 806.467h-44.983c-6.713 0-11.605 4.538-11.605 10.465v253.438c0 7.72 7.559 14.57 16.105 14.57h108.418c8.233 0 16.105-6.9 16.105-14.57V817.617c0-7.104-5.313-11.108-11.604-11.15H488.44c-.173.028-3.312 1.309-4.639 4.538-1.327 3.229-3.996 5.803-6.919 5.803h-3.394c-1.39 0-5.047-1.338-6.899-5.803-1.852-4.465-4.714-4.51-4.888-4.538Z" fill="#fff"/><mask id="f" style="mask-type:alpha" maskUnits="userSpaceOnUse" x="405" y="806" width="141" height="279"><path fill-rule="evenodd" clip-rule="evenodd" d="M461.701 806.467h-44.983c-6.713 0-11.605 4.538-11.605 10.465v253.438c0 7.72 7.559 14.57 16.105 14.57h108.418c8.233 0 16.105-6.9 16.105-14.57V817.617c0-7.104-5.313-11.108-11.604-11.15H488.44c-.173.028-3.312 1.309-4.639 4.538-1.327 3.229-3.996 5.803-6.919 5.803h-3.394c-1.39 0-5.047-1.338-6.899-5.803-1.852-4.465-4.714-4.51-4.888-4.538Z" fill="#fff"/></mask><g mask="url(#f)"><path fill="url(#g)" d="M405 806h141v279H405z"/><path fill-rule="evenodd" clip-rule="evenodd" d="M469.452 880.639V883h-10.273v-2.093c0-.704.132-1.313.397-1.828a4.476 4.476 0 0 1 1.049-1.344 8.259 8.259 0 0 1 1.432-1.004 34.8 34.8 0 0 1 1.562-.816 20.449 20.449 0 0 0 1.437-.772c.435-.26.785-.549 1.049-.869.264-.32.397-.698.397-1.133 0-.557-.195-1.011-.586-1.363-.39-.352-.923-.528-1.6-.528-.703 0-1.3.201-1.79.605-.49.403-.793 1.011-.909 1.824h-2.699c.013-.884.221-1.685.624-2.405.403-.72 1.008-1.291 1.814-1.714.806-.422 1.818-.633 3.037-.633 1.045 0 1.946.176 2.704.528.757.352 1.342.841 1.755 1.468.413.628.619 1.36.619 2.199 0 .697-.129 1.299-.387 1.805a4.135 4.135 0 0 1-1.025 1.296 7.845 7.845 0 0 1-1.403.94c-.509.269-1.017.519-1.523.749a18.53 18.53 0 0 0-1.398.706c-.425.24-.767.51-1.025.811a1.61 1.61 0 0 0-.387 1.085v.125h7.129Zm-13.455-11.52V883h-2.863v-10.397h-2.496v-1.584c.8 0 1.446-.075 1.939-.225.494-.151.863-.368 1.108-.653a1.85 1.85 0 0 0 .435-1.022h1.877Zm18.427 7.2v-3.005h-3.096v3.005h3.096Zm0 3.628v2.996h-3.096v-2.996h3.096ZM485.567 883v-3.072h2.157v-2.352h-2.157v-8.457h-2.776l-6.375 8.505v2.304h6.443l-.01 3.072h2.718Zm-6.539-5.424h3.831v-5.088l-3.831 5.088Zm15.235 5.635c1.225 0 2.28-.273 3.163-.82.884-.548 1.562-1.373 2.036-2.477.474-1.104.711-2.485.711-4.143 0-1.388-.23-2.596-.691-3.624-.461-1.027-1.122-1.82-1.983-2.38-.861-.56-1.885-.84-3.071-.84-1.058 0-1.98.201-2.767.604-.787.404-1.399.96-1.838 1.671-.438.71-.657 1.52-.657 2.429 0 .902.207 1.681.623 2.337.416.656.99 1.162 1.722 1.517s1.572.533 2.52.533c.522 0 .996-.069 1.422-.207a3.504 3.504 0 0 0 1.117-.585c.319-.253.569-.549.75-.888.077 1.107-.011 2.003-.266 2.688s-.635 1.184-1.142 1.497c-.506.314-1.094.471-1.765.471-.606 0-1.109-.168-1.509-.504a2.29 2.29 0 0 1-.774-1.311h-2.689c.058.813.326 1.522.803 2.127a4.741 4.741 0 0 0 1.848 1.406 5.966 5.966 0 0 0 2.437.499Zm-1.422-8.02c.426.4.984.6 1.674.6.393 0 .775-.088 1.146-.264.371-.176.675-.399.914-.668.239-.268.358-.547.358-.835.006-.621-.092-1.153-.295-1.598-.203-.445-.487-.786-.851-1.023a2.291 2.291 0 0 0-1.272-.355 2.31 2.31 0 0 0-1.19.307 2.18 2.18 0 0 0-.822.864c-.2.372-.3.8-.3 1.287 0 .723.213 1.285.638 1.685Z" fill="#fff"/></g><g clip-path="url(#h)"><g filter="url(#i)"><rect x="408.805" y="899" width="131.255" height="53.191" rx="5" fill="#FBFCFE"/></g><path fill-rule="evenodd" clip-rule="evenodd" d="M420.886 914.285v-1.859l1.515-2.561h-.961l-.99 1.791-1.003-1.791h-.951l1.511 2.558v1.862h.879Zm3.285.061c.317 0 .587-.069.811-.208.224-.138.395-.329.515-.573.119-.244.179-.524.179-.842 0-.339-.061-.632-.184-.881a1.36 1.36 0 0 0-.52-.576 1.522 1.522 0 0 0-.798-.203c-.307 0-.574.069-.799.208a1.38 1.38 0 0 0-.524.581 1.927 1.927 0 0 0-.185.871c0 .332.061.619.185.862.123.242.298.43.524.562.225.133.491.199.796.199Zm-.386-.807a.522.522 0 0 0 .389.144.511.511 0 0 0 .373-.138.804.804 0 0 0 .206-.362c.043-.15.065-.313.065-.491 0-.167-.02-.325-.059-.474a.76.76 0 0 0-.2-.36.528.528 0 0 0-.385-.138.533.533 0 0 0-.375.13.757.757 0 0 0-.209.352 1.708 1.708 0 0 0-.066.49c0 .165.02.324.06.476.04.151.107.275.201.371Zm3.622.807c.122 0 .247-.019.375-.057a.788.788 0 0 0 .34-.204.803.803 0 0 0 .203-.427l.103.627h.662v-3.161h-.87v2.057c0 .163-.051.29-.152.381a.594.594 0 0 1-.411.136c-.183 0-.321-.047-.416-.141a.486.486 0 0 1-.141-.36v-2.073h-.879v2.186c0 .169.034.318.104.446.069.128.161.236.275.324.115.088.242.154.381.199.139.045.281.067.426.067Zm3.275-1.791v1.73h-.879v-3.161h.846v.749c.05-.161.121-.302.212-.423a.998.998 0 0 1 .333-.285.945.945 0 0 1 .522-.098.172.172 0 0 1 .056.014v.85a.2.2 0 0 0-.065-.015 3.372 3.372 0 0 1-.067-.006 1.569 1.569 0 0 0-.443.015.702.702 0 0 0-.298.125.513.513 0 0 0-.165.217.758.758 0 0 0-.052.288Zm3.517 1.73.364-1.024h1.565l.355 1.024h.876l-1.556-4.42h-.927l-1.56 4.42h.883Zm.559-1.804h1.159l-.575-1.754-.584 1.754Zm4.022 2.788v-1.458c.045.075.096.145.155.209a.99.99 0 0 0 .448.285.956.956 0 0 0 .282.041c.245 0 .465-.059.66-.177.194-.118.347-.3.459-.546.111-.246.167-.56.167-.943 0-.369-.052-.673-.155-.913a1.139 1.139 0 0 0-.426-.531 1.116 1.116 0 0 0-.617-.173 1.116 1.116 0 0 0-.572.147 1.18 1.18 0 0 0-.224.163.981.981 0 0 0-.171.206l-.003-.455h-.882v4.145h.879Zm.297-1.718a.527.527 0 0 0 .378.141c.19 0 .35-.081.48-.242.129-.161.194-.415.194-.764 0-.306-.062-.545-.185-.717a.574.574 0 0 0-.489-.258.552.552 0 0 0-.508.28c-.111.186-.167.418-.167.695 0 .177.025.342.074.495a.861.861 0 0 0 .223.37Zm3.337 1.718v-1.458c.044.075.096.145.155.209a1.006 1.006 0 0 0 .73.326c.245 0 .465-.059.659-.177.195-.118.348-.3.459-.546.112-.246.168-.56.168-.943 0-.369-.052-.673-.155-.913a1.151 1.151 0 0 0-.426-.531 1.12 1.12 0 0 0-.618-.173 1.15 1.15 0 0 0-.966.516l-.003-.455h-.882v4.145h.879Zm.297-1.718a.526.526 0 0 0 .377.141.596.596 0 0 0 .481-.242c.129-.161.194-.415.194-.764 0-.306-.062-.545-.185-.717a.576.576 0 0 0-.49-.258.55.55 0 0 0-.507.28c-.111.186-.167.418-.167.695 0 .177.025.342.074.495a.852.852 0 0 0 .223.37Z" fill="#BA4270"/><path opacity=".5" fill-rule="evenodd" clip-rule="evenodd" d="M506.691 914.218c-.133.085-.322.128-.567.128-.155 0-.3-.018-.435-.055a2.543 2.543 0 0 1-.27-.083l.039-.541c.063.023.134.051.216.084a.784.784 0 0 0 .302.051c.197 0 .332-.055.405-.165.073-.11.11-.296.11-.557v-3.215h.557v3.377c0 .235-.026.435-.078.6a.668.668 0 0 1-.279.376Zm2.833.062a1.151 1.151 0 0 1-.411.066 1.564 1.564 0 0 1-.459-.072 1.163 1.163 0 0 1-.381-.203.947.947 0 0 1-.26-.335 1.08 1.08 0 0 1-.095-.466v-2.146h.557v2.088c0 .206.063.373.188.501.125.129.315.193.568.193.228 0 .412-.061.552-.182.139-.121.209-.302.209-.543v-2.057h.554v3.161h-.442l-.058-.605a.84.84 0 0 1-.194.385.823.823 0 0 1-.328.215Zm2.997.066c.253 0 .468-.038.646-.115a.916.916 0 0 0 .409-.324.865.865 0 0 0 .143-.499.881.881 0 0 0-.035-.243.771.771 0 0 0-.34-.454 1.14 1.14 0 0 0-.356-.153l-.624-.159a1.152 1.152 0 0 1-.391-.161.309.309 0 0 1-.132-.264c0-.169.062-.294.186-.375a.885.885 0 0 1 .485-.12c.191 0 .343.044.456.133.113.088.18.208.2.359h.491c-.008-.298-.116-.523-.324-.677-.207-.154-.48-.231-.817-.231-.263 0-.483.041-.659.122a.906.906 0 0 0-.398.333.885.885 0 0 0-.129.489c0 .235.075.417.226.548.15.13.351.226.602.287l.644.162c.14.033.244.084.311.154a.387.387 0 0 1 .101.28.403.403 0 0 1-.192.367.957.957 0 0 1-.506.119c-.131 0-.251-.021-.361-.062a.68.68 0 0 1-.276-.187.69.69 0 0 1-.152-.31h-.506c.033.226.11.412.232.558.123.145.277.252.462.321.186.068.387.102.604.102Zm3.442-.061c-.077.01-.173.015-.287.015-.215 0-.381-.029-.5-.088a.5.5 0 0 1-.248-.263 1.147 1.147 0 0 1-.071-.428v-1.984h-.506v-.413h.521l.136-.92h.409v.917h.701v.416h-.701v1.965c0 .112.012.194.035.246a.17.17 0 0 0 .117.1.965.965 0 0 0 .227.021h.34v.379a.83.83 0 0 1-.173.037Zm3.015 0V910.8l2.336 3.485h.497v-4.42h-.557v3.436l-2.3-3.436h-.533v4.42h.557Zm5.884-.145c-.21.137-.469.206-.778.206-.287 0-.538-.063-.753-.188a1.255 1.255 0 0 1-.499-.552c-.119-.242-.178-.539-.178-.889 0-.33.055-.62.166-.869.11-.248.272-.441.486-.579.214-.137.473-.206.778-.206.287 0 .536.064.748.191.212.127.376.314.492.561.117.246.175.547.175.902 0 .322-.054.605-.161.85a1.292 1.292 0 0 1-.476.573Zm-.778-.24a.765.765 0 0 1-.503-.159.929.929 0 0 1-.283-.431 1.923 1.923 0 0 1-.09-.606c0-.25.034-.465.101-.645a.87.87 0 0 1 .296-.411.792.792 0 0 1 .479-.142c.205 0 .371.053.498.159a.897.897 0 0 1 .279.43c.058.18.087.383.087.609 0 .247-.033.46-.099.639a.884.884 0 0 1-.292.413.769.769 0 0 1-.473.144Zm4.04-1.948-.674 2.333h-.545l-.961-3.161h.515l.714 2.43h.048l.701-2.43h.422l.728 2.424h.048l.684-2.424h.521l-.943 3.161h-.548l-.71-2.333Z" fill="#36536B"/><path d="M418.15 921.353v-.553h3.555v.553h-1.433v4.147h-.605v-4.147h-1.517Zm4.207 4.147v-4.83h.585v1.963a1.107 1.107 0 0 1 .575-.458c.136-.052.295-.078.474-.078.219 0 .417.041.595.124.178.08.319.195.423.344a.91.91 0 0 1 .156.533v2.402h-.602v-2.282c0-.201-.069-.356-.208-.464-.136-.111-.315-.166-.536-.166-.149 0-.29.025-.422.075a.714.714 0 0 0-.322.221.568.568 0 0 0-.12.373v2.243h-.598Zm4.174-1.541c0 .213.034.406.104.579a.92.92 0 0 0 .321.409.925.925 0 0 0 .543.153 1 1 0 0 0 .553-.149.673.673 0 0 0 .299-.433h.568a1.14 1.14 0 0 1-.273.576c-.14.156-.31.274-.51.354a1.695 1.695 0 0 1-.624.117c-.314 0-.59-.068-.829-.205a1.424 1.424 0 0 1-.559-.588c-.134-.256-.201-.562-.201-.92 0-.353.061-.663.182-.929.121-.267.297-.475.526-.624.232-.15.511-.225.836-.225.316 0 .584.069.802.205.219.137.385.33.498.579.115.247.172.54.172.88v.221h-2.408Zm.003-.406h1.826c0-.193-.032-.366-.097-.52a.797.797 0 0 0-.299-.367.863.863 0 0 0-.501-.137.86.86 0 0 0-.523.153.948.948 0 0 0-.309.387 1.176 1.176 0 0 0-.097.484Zm4.684 2.994v-4.408h.598l.006.585a1.285 1.285 0 0 1 .377-.429 1.231 1.231 0 0 1 .728-.221c.269 0 .505.062.709.186.206.121.366.307.481.559.115.251.172.57.172.955 0 .386-.056.712-.169.978-.11.265-.271.466-.481.605-.21.139-.463.208-.76.208-.15 0-.283-.022-.4-.065a1.052 1.052 0 0 1-.517-.384 1.798 1.798 0 0 1-.14-.224v1.655h-.604Zm1.547-1.45a.844.844 0 0 0 .679-.315c.176-.213.263-.542.263-.988 0-.384-.08-.688-.24-.914-.16-.225-.394-.338-.702-.338-.312 0-.548.116-.709.348-.16.23-.24.531-.24.904 0 .24.036.459.107.656.072.197.178.354.319.471a.791.791 0 0 0 .523.176Zm3.197.468c-.216 0-.408-.038-.575-.114a.921.921 0 0 1-.393-.335.953.953 0 0 1-.14-.526c0-.373.13-.65.39-.832.26-.182.677-.28 1.251-.293l.602-.016v-.263c0-.206-.062-.368-.186-.488-.123-.121-.315-.182-.575-.182a.995.995 0 0 0-.51.137c-.145.089-.24.234-.283.435h-.53c.013-.218.075-.403.186-.552.11-.152.264-.267.461-.345.199-.078.435-.117.705-.117.293 0 .536.042.728.124a.89.89 0 0 1 .436.364c.097.16.146.357.146.591v2.347h-.513l-.043-.631c-.13.263-.295.445-.497.546-.199.1-.419.15-.66.15Zm.182-.432a.954.954 0 0 0 .335-.062c.113-.041.216-.096.309-.166a.894.894 0 0 0 .221-.237.54.54 0 0 0 .088-.273v-.575l-.501.01c-.256.004-.47.03-.643.077a.76.76 0 0 0-.387.225.602.602 0 0 0-.127.399c0 .189.065.336.195.442.132.107.302.16.51.16Zm2.781 1.44c-.197 0-.332-.015-.406-.043l-.11-.042v-.39l.341.007c.126.004.23-.005.312-.026a.587.587 0 0 0 .198-.088.402.402 0 0 0 .114-.124.909.909 0 0 0 .068-.13l.117-.318-1.313-3.28h.608l.991 2.594.985-2.594h.588l-1.417 3.615a1.675 1.675 0 0 1-.292.497.882.882 0 0 1-.358.25 1.22 1.22 0 0 1-.426.072Zm3.135-1.073v-3.361h.578v.488c.093-.147.221-.276.384-.387.162-.11.374-.166.634-.166.121 0 .244.021.37.062.128.041.245.103.351.185a.86.86 0 0 1 .247.303c.104-.165.245-.297.423-.397.177-.102.378-.153.601-.153.117 0 .239.019.367.056a.95.95 0 0 1 .624.562c.069.158.104.362.104.611v2.197h-.604v-2.139c0-.203-.033-.36-.098-.471a.543.543 0 0 0-.257-.237.815.815 0 0 0-.334-.068c-.104 0-.215.02-.332.061a.691.691 0 0 0-.299.208.603.603 0 0 0-.123.4v2.246h-.598v-2.314a.511.511 0 0 0-.108-.332.656.656 0 0 0-.263-.201.764.764 0 0 0-.312-.068.944.944 0 0 0-.348.068.693.693 0 0 0-.292.218.593.593 0 0 0-.117.383v2.246h-.598Zm6.053-1.541c0 .213.034.406.104.579a.923.923 0 0 0 .322.409.92.92 0 0 0 .542.153 1 1 0 0 0 .553-.149.673.673 0 0 0 .299-.433h.569c-.042.228-.133.42-.273.576a1.359 1.359 0 0 1-.511.354 1.695 1.695 0 0 1-.624.117 1.63 1.63 0 0 1-.828-.205 1.411 1.411 0 0 1-.559-.588c-.135-.256-.202-.562-.202-.92 0-.353.061-.663.182-.929.121-.267.297-.475.527-.624.231-.15.51-.225.835-.225.316 0 .584.069.803.205a1.3 1.3 0 0 1 .497.579c.115.247.172.54.172.88v.221h-2.408Zm.003-.406h1.827c0-.193-.033-.366-.098-.52a.797.797 0 0 0-.299-.367.862.862 0 0 0-.5-.137.86.86 0 0 0-.524.153.938.938 0 0 0-.308.387c-.068.156-.1.317-.098.484Zm3.23 1.947v-3.361h.582v.488c.054-.093.129-.181.224-.263.098-.083.215-.149.351-.199.139-.049.298-.074.478-.074.212 0 .407.042.585.127.18.084.323.216.429.396.108.178.163.407.163.689v2.197h-.602v-2.139c0-.262-.069-.456-.208-.581a.747.747 0 0 0-.533-.192c-.151 0-.293.025-.425.075a.714.714 0 0 0-.322.221.555.555 0 0 0-.124.37v2.246h-.598Zm5.3-2.922h-.757v2.09c0 .119.012.207.036.263a.185.185 0 0 0 .127.104c.06.015.143.023.247.023h.367v.403a.945.945 0 0 1-.189.039 2.397 2.397 0 0 1-.308.016c-.232 0-.412-.031-.54-.094a.538.538 0 0 1-.27-.28 1.233 1.233 0 0 1-.074-.454v-2.11h-.546v-.439h.562l.146-.978h.442v.975h.757v.442Zm2.362 2.922v-4.83h.585v1.963a1.13 1.13 0 0 1 .575-.458c.137-.052.295-.078.475-.078.219 0 .417.041.594.124.178.08.319.195.423.344a.91.91 0 0 1 .156.533v2.402h-.601v-2.282a.556.556 0 0 0-.208-.464c-.137-.111-.316-.166-.537-.166-.149 0-.29.025-.422.075a.725.725 0 0 0-.322.221.568.568 0 0 0-.12.373v2.243h-.598Zm4.662.065a1.37 1.37 0 0 1-.575-.114.93.93 0 0 1-.394-.335.953.953 0 0 1-.139-.526c0-.373.13-.65.39-.832.26-.182.677-.28 1.251-.293l.601-.016v-.263a.65.65 0 0 0-.185-.488c-.124-.121-.315-.182-.575-.182a1.002 1.002 0 0 0-.511.137c-.145.089-.239.234-.282.435h-.53c.013-.218.075-.403.185-.552.111-.152.264-.267.462-.345.199-.078.434-.117.705-.117.292 0 .535.042.728.124.195.082.34.204.435.364.098.16.147.357.147.591v2.347h-.514l-.042-.631c-.13.263-.296.445-.497.546-.2.1-.42.15-.66.15Zm.182-.432a.959.959 0 0 0 .335-.062c.112-.041.215-.096.308-.166a.878.878 0 0 0 .221-.237.521.521 0 0 0 .088-.273v-.575l-.5.01c-.256.004-.471.03-.644.077a.764.764 0 0 0-.387.225.607.607 0 0 0-.126.399c0 .189.065.336.195.442.132.107.302.16.51.16Zm3.693.432c-.234 0-.452-.036-.653-.107a1.19 1.19 0 0 1-.498-.342 1.155 1.155 0 0 1-.25-.594h.546a.752.752 0 0 0 .163.331c.08.087.18.153.299.198.119.044.249.065.39.065.225 0 .407-.042.546-.126a.427.427 0 0 0 .208-.39.399.399 0 0 0-.111-.296.647.647 0 0 0-.335-.166l-.695-.172a1.531 1.531 0 0 1-.65-.306c-.163-.138-.244-.332-.244-.581a.93.93 0 0 1 .14-.52.96.96 0 0 1 .429-.355c.191-.086.428-.13.712-.13.364 0 .657.083.88.247.226.163.343.402.351.719h-.529a.554.554 0 0 0-.218-.381c-.121-.095-.285-.143-.491-.143a.956.956 0 0 0-.523.13c-.134.085-.202.217-.202.397 0 .119.048.213.143.283.096.067.237.123.423.169l.673.169c.156.041.284.095.383.162a.902.902 0 0 1 .241.224.917.917 0 0 1 .165.517.908.908 0 0 1-.156.533.99.99 0 0 1-.442.345c-.19.08-.422.12-.695.12Zm5.267 0c-.197 0-.364-.026-.501-.078a1.025 1.025 0 0 1-.533-.449 1.477 1.477 0 0 1-.104-.227l-.065.689h-.458v-4.83h.605v2.002a.982.982 0 0 1 .351-.38 1.261 1.261 0 0 1 .75-.218c.421 0 .754.147 1.001.439.249.293.374.724.374 1.294 0 .353-.053.662-.159.926a1.344 1.344 0 0 1-.475.614c-.21.145-.472.218-.786.218Zm-.107-.462a.819.819 0 0 0 .666-.315c.171-.212.257-.549.257-1.011 0-.392-.081-.695-.241-.91-.158-.216-.39-.325-.695-.325-.224 0-.403.049-.54.147a.837.837 0 0 0-.299.419 2.13 2.13 0 0 0-.097.669c0 .471.072.81.217 1.018.148.206.391.308.732.308Zm2.741-1.144c0 .213.034.406.104.579a.923.923 0 0 0 .322.409.92.92 0 0 0 .542.153 1 1 0 0 0 .553-.149.673.673 0 0 0 .299-.433h.569c-.042.228-.133.42-.273.576a1.359 1.359 0 0 1-.511.354 1.695 1.695 0 0 1-.624.117 1.63 1.63 0 0 1-.828-.205 1.411 1.411 0 0 1-.559-.588c-.135-.256-.202-.562-.202-.92 0-.353.061-.663.182-.929.121-.267.297-.475.527-.624.231-.15.51-.225.835-.225.316 0 .584.069.803.205a1.3 1.3 0 0 1 .497.579c.115.247.172.54.172.88v.221h-2.408Zm.003-.406h1.827c0-.193-.033-.366-.098-.52a.797.797 0 0 0-.299-.367.862.862 0 0 0-.5-.137.86.86 0 0 0-.524.153.938.938 0 0 0-.308.387c-.068.156-.1.317-.098.484Zm3.659.406c0 .213.035.406.104.579a.93.93 0 0 0 .322.409.92.92 0 0 0 .543.153c.214 0 .399-.05.552-.149a.67.67 0 0 0 .299-.433h.569a1.14 1.14 0 0 1-.273.576 1.363 1.363 0 0 1-.51.354 1.695 1.695 0 0 1-.624.117c-.314 0-.591-.068-.829-.205a1.418 1.418 0 0 1-.559-.588c-.134-.256-.201-.562-.201-.92 0-.353.06-.663.182-.929.121-.267.296-.475.526-.624.232-.15.51-.225.835-.225.317 0 .584.069.803.205.219.137.385.33.497.579.115.247.173.54.173.88v.221h-2.409Zm.004-.406h1.826c0-.193-.032-.366-.097-.52a.797.797 0 0 0-.299-.367.865.865 0 0 0-.501-.137.86.86 0 0 0-.832.54 1.16 1.16 0 0 0-.097.484Zm3.23 1.947v-3.361h.582v.488c.054-.093.129-.181.224-.263.097-.083.214-.149.351-.199.139-.049.298-.074.478-.074.212 0 .407.042.585.127.18.084.323.216.429.396.108.178.162.407.162.689v2.197h-.601v-2.139c0-.262-.069-.456-.208-.581a.748.748 0 0 0-.533-.192c-.152 0-.294.025-.426.075a.725.725 0 0 0-.322.221.555.555 0 0 0-.123.37v2.246h-.598Zm5.249 1.047v-4.408h.598l.007.585a1.258 1.258 0 0 1 .377-.429 1.224 1.224 0 0 1 .728-.221c.269 0 .505.062.708.186.206.121.367.307.481.559.115.251.173.57.173.955 0 .386-.057.712-.169.978a1.305 1.305 0 0 1-.481.605c-.21.139-.464.208-.761.208-.149 0-.283-.022-.4-.065a1.08 1.08 0 0 1-.516-.384 1.687 1.687 0 0 1-.14-.224v1.655h-.605Zm1.547-1.45a.846.846 0 0 0 .68-.315c.175-.213.263-.542.263-.988 0-.384-.08-.688-.241-.914-.16-.225-.394-.338-.702-.338-.312 0-.548.116-.708.348-.16.23-.241.531-.241.904 0 .24.036.459.108.656.071.197.177.354.318.471a.791.791 0 0 0 .523.176Zm2.313.403v-3.361h.572v.647c.056-.16.135-.292.237-.396a.992.992 0 0 1 .348-.238 1.109 1.109 0 0 1 .556-.068.32.32 0 0 1 .11.033v.581a.397.397 0 0 0-.127-.029 1.102 1.102 0 0 0-.126-.01 1.36 1.36 0 0 0-.377.026.854.854 0 0 0-.309.127.649.649 0 0 0-.211.241.773.773 0 0 0-.075.357v2.09h-.598Zm3.779.065c-.309 0-.58-.066-.812-.198a1.362 1.362 0 0 1-.54-.589c-.127-.257-.191-.573-.191-.945 0-.351.059-.659.178-.923.12-.265.294-.469.524-.615.232-.147.512-.221.841-.221.31 0 .579.069.806.205.23.135.408.333.533.595.126.262.189.582.189.959 0 .342-.059.643-.176.903-.114.26-.286.464-.513.611-.225.145-.505.218-.839.218Zm0-.475c.202 0 .372-.05.511-.152a.94.94 0 0 0 .315-.439c.071-.191.107-.417.107-.679 0-.241-.031-.456-.094-.647a.955.955 0 0 0-.302-.458c-.137-.113-.316-.169-.537-.169a.863.863 0 0 0-.516.152.925.925 0 0 0-.322.436 1.946 1.946 0 0 0-.107.686c0 .236.032.45.097.643a.968.968 0 0 0 .306.458c.138.113.319.169.542.169Zm3.654-3.016c.24 0 .457.047.65.14.192.091.35.221.471.39.123.169.2.369.231.598h-.533a.749.749 0 0 0-.137-.322.754.754 0 0 0-.276-.234.883.883 0 0 0-.403-.087.885.885 0 0 0-.702.312c-.18.208-.27.526-.27.955 0 .388.082.699.247.933.167.232.412.348.735.348a.793.793 0 0 0 .676-.325.802.802 0 0 0 .133-.319h.523a1.202 1.202 0 0 1-.702.969 1.503 1.503 0 0 1-.643.133c-.302 0-.569-.066-.803-.198a1.371 1.371 0 0 1-.546-.585c-.132-.258-.198-.574-.198-.949 0-.351.059-.658.178-.92.122-.264.297-.47.527-.618a1.54 1.54 0 0 1 .842-.221Zm2.594 1.885c0 .213.034.406.104.579a.92.92 0 0 0 .321.409.92.92 0 0 0 .543.153 1 1 0 0 0 .553-.149.673.673 0 0 0 .299-.433h.568a1.14 1.14 0 0 1-.273.576 1.363 1.363 0 0 1-.51.354 1.695 1.695 0 0 1-.624.117c-.314 0-.59-.068-.829-.205a1.424 1.424 0 0 1-.559-.588c-.134-.256-.201-.562-.201-.92 0-.353.06-.663.182-.929.121-.267.297-.475.526-.624.232-.15.511-.225.836-.225.316 0 .583.069.802.205.219.137.385.33.498.579.114.247.172.54.172.88v.221h-2.408Zm.003-.406h1.826c0-.193-.032-.366-.097-.52a.797.797 0 0 0-.299-.367.863.863 0 0 0-.501-.137.86.86 0 0 0-.523.153.948.948 0 0 0-.309.387 1.176 1.176 0 0 0-.097.484Zm4.397 2.012c-.234 0-.451-.036-.653-.107a1.187 1.187 0 0 1-.497-.342 1.147 1.147 0 0 1-.25-.594h.546a.74.74 0 0 0 .162.331c.08.087.18.153.299.198.119.044.249.065.39.065.226 0 .408-.042.546-.126a.425.425 0 0 0 .208-.39.402.402 0 0 0-.11-.296.651.651 0 0 0-.335-.166l-.696-.172a1.543 1.543 0 0 1-.65-.306c-.162-.138-.243-.332-.243-.581a.93.93 0 0 1 .139-.52.972.972 0 0 1 .429-.355c.191-.086.428-.13.712-.13.364 0 .658.083.881.247.225.163.342.402.351.719h-.53a.547.547 0 0 0-.218-.381c-.121-.095-.284-.143-.49-.143a.96.96 0 0 0-.524.13c-.134.085-.201.217-.201.397 0 .119.048.213.143.283.095.067.236.123.422.169l.673.169c.156.041.284.095.384.162a.882.882 0 0 1 .24.224.917.917 0 0 1 .166.517.908.908 0 0 1-.156.533.996.996 0 0 1-.442.345 1.8 1.8 0 0 1-.696.12Zm3.27 0c-.234 0-.452-.036-.654-.107a1.187 1.187 0 0 1-.497-.342 1.147 1.147 0 0 1-.25-.594h.546a.74.74 0 0 0 .162.331c.08.087.18.153.299.198.119.044.249.065.39.065.226 0 .408-.042.546-.126a.425.425 0 0 0 .208-.39.402.402 0 0 0-.11-.296.651.651 0 0 0-.335-.166l-.695-.172a1.531 1.531 0 0 1-.65-.306c-.163-.138-.244-.332-.244-.581a.922.922 0 0 1 .14-.52.96.96 0 0 1 .429-.355c.19-.086.427-.13.711-.13.364 0 .658.083.881.247.225.163.342.402.351.719h-.53a.549.549 0 0 0-.217-.381c-.122-.095-.285-.143-.491-.143a.953.953 0 0 0-.523.13c-.135.085-.202.217-.202.397 0 .119.048.213.143.283.095.067.236.123.423.169l.672.169c.156.041.284.095.384.162a.882.882 0 0 1 .24.224.917.917 0 0 1 .166.517.908.908 0 0 1-.156.533.996.996 0 0 1-.442.345c-.191.08-.422.12-.695.12Zm2.562-1.606c0 .213.035.406.104.579a.923.923 0 0 0 .322.409.92.92 0 0 0 .542.153 1 1 0 0 0 .553-.149.67.67 0 0 0 .299-.433h.569a1.14 1.14 0 0 1-.273.576 1.359 1.359 0 0 1-.511.354 1.695 1.695 0 0 1-.624.117 1.63 1.63 0 0 1-.828-.205 1.411 1.411 0 0 1-.559-.588c-.135-.256-.202-.562-.202-.92 0-.353.061-.663.182-.929a1.43 1.43 0 0 1 .527-.624c.232-.15.51-.225.835-.225.316 0 .584.069.803.205.219.137.384.33.497.579.115.247.172.54.172.88v.221h-2.408Zm.003-.406h1.827c0-.193-.033-.366-.098-.52a.791.791 0 0 0-.299-.367.862.862 0 0 0-.5-.137.863.863 0 0 0-.524.153.938.938 0 0 0-.308.387c-.067.156-.1.317-.098.484Zm4.443 2.012c-.436 0-.781-.15-1.037-.449-.256-.299-.383-.735-.383-1.309 0-.349.05-.654.152-.914.104-.26.258-.461.462-.604.203-.143.457-.215.76-.215.161 0 .303.021.426.062.126.041.234.093.325.156a1.108 1.108 0 0 1 .351.38v-2.002h.605v4.83h-.459l-.065-.689a1.307 1.307 0 0 1-.104.227 1.09 1.09 0 0 1-.201.251c-.087.08-.198.146-.335.198-.134.052-.3.078-.497.078Zm.107-.462c.34 0 .583-.102.728-.308.147-.208.221-.547.221-1.018a2.066 2.066 0 0 0-.101-.669.809.809 0 0 0-.299-.419c-.134-.098-.313-.147-.536-.147a.859.859 0 0 0-.676.296c-.173.197-.26.51-.26.939 0 .421.078.747.234.979.158.232.388.347.689.347Zm2.407.397v-.767h.715v.767h-.715Zm-100.52 3.853v-.553h3.555v.553h-1.433v4.147h-.605v-4.147h-1.517Zm4.207 4.147v-4.83h.585v1.963a1.107 1.107 0 0 1 .575-.458c.136-.052.295-.078.474-.078.219 0 .417.041.595.124.178.08.319.195.423.344a.91.91 0 0 1 .156.533v2.402h-.602v-2.282c0-.201-.069-.356-.208-.464-.136-.111-.315-.166-.536-.166-.149 0-.29.025-.422.075a.714.714 0 0 0-.322.221.568.568 0 0 0-.12.373v2.243h-.598Zm4.174-1.541c0 .213.034.406.104.579a.92.92 0 0 0 .321.409.925.925 0 0 0 .543.153 1 1 0 0 0 .553-.149.673.673 0 0 0 .299-.433h.568a1.14 1.14 0 0 1-.273.576c-.14.156-.31.274-.51.354a1.695 1.695 0 0 1-.624.117c-.314 0-.59-.068-.829-.205a1.424 1.424 0 0 1-.559-.588c-.134-.256-.201-.562-.201-.92 0-.353.061-.663.182-.929.121-.267.297-.475.526-.624.232-.15.511-.225.836-.225.316 0 .584.069.802.205.219.137.385.33.498.579.115.247.172.54.172.88v.221h-2.408Zm.003-.406h1.826c0-.193-.032-.366-.097-.52a.797.797 0 0 0-.299-.367.863.863 0 0 0-.501-.137.86.86 0 0 0-.523.153.948.948 0 0 0-.309.387 1.176 1.176 0 0 0-.097.484Zm6.391-.975h-.757v2.09c0 .119.012.207.036.263a.185.185 0 0 0 .127.104c.06.015.143.023.247.023h.367v.403a.945.945 0 0 1-.189.039 2.397 2.397 0 0 1-.308.016c-.232 0-.412-.031-.54-.094a.538.538 0 0 1-.27-.28 1.212 1.212 0 0 1-.074-.454v-2.11h-.546v-.439h.562l.146-.978h.442v.975h.757v.442Zm2.111 2.987c-.31 0-.581-.066-.813-.198a1.354 1.354 0 0 1-.539-.589c-.128-.257-.192-.573-.192-.945 0-.351.059-.659.179-.923.119-.265.293-.469.523-.615a1.54 1.54 0 0 1 .842-.221c.309 0 .578.069.806.205.229.135.407.333.533.595.125.262.188.582.188.959 0 .342-.058.643-.175.903-.115.26-.286.464-.514.611-.225.145-.505.218-.838.218Zm0-.475c.201 0 .371-.05.51-.152a.927.927 0 0 0 .315-.439c.072-.191.107-.417.107-.679 0-.241-.031-.456-.094-.647a.948.948 0 0 0-.302-.458c-.137-.113-.315-.169-.536-.169a.864.864 0 0 0-.517.152.925.925 0 0 0-.322.436 1.969 1.969 0 0 0-.107.686c0 .236.032.45.097.643a.968.968 0 0 0 .306.458c.139.113.319.169.543.169Zm3.913-2.512h-.757v2.09c0 .119.012.207.036.263a.186.186 0 0 0 .126.104c.061.015.143.023.247.023h.368v.403a.945.945 0 0 1-.189.039 2.404 2.404 0 0 1-.309.016c-.231 0-.411-.031-.539-.094a.538.538 0 0 1-.27-.28 1.211 1.211 0 0 1-.075-.454v-2.11h-.546v-.439h.563l.146-.978h.442v.975h.757v.442Zm1.768 2.987a1.37 1.37 0 0 1-.575-.114.93.93 0 0 1-.394-.335.953.953 0 0 1-.139-.526c0-.373.13-.65.39-.832.26-.182.677-.28 1.251-.293l.601-.016v-.263a.65.65 0 0 0-.185-.488c-.124-.121-.315-.182-.575-.182a1.002 1.002 0 0 0-.511.137c-.145.089-.239.234-.282.435h-.53c.013-.218.075-.403.185-.552.111-.152.264-.267.462-.345.199-.078.434-.117.705-.117.292 0 .535.042.728.124.195.082.34.204.435.364.098.16.147.357.147.591v2.347h-.514l-.042-.631c-.13.263-.296.445-.497.546-.2.1-.42.15-.66.15Zm.182-.432a.963.963 0 0 0 .335-.062c.112-.041.215-.096.308-.166a.894.894 0 0 0 .221-.237.521.521 0 0 0 .088-.273v-.575l-.5.01c-.256.004-.471.03-.644.077a.764.764 0 0 0-.387.225.607.607 0 0 0-.126.399c0 .189.065.336.195.442.132.107.302.16.51.16Zm3.405.409c-.182 0-.329-.025-.442-.075a.615.615 0 0 1-.256-.201.769.769 0 0 1-.121-.289 2.024 2.024 0 0 1-.029-.342v-3.965h.592v3.907c0 .169.032.296.097.38a.375.375 0 0 0 .28.14l.182.003v.39a1.268 1.268 0 0 1-.303.052Zm3.516.023a1.37 1.37 0 0 1-.575-.114.93.93 0 0 1-.394-.335.953.953 0 0 1-.139-.526c0-.373.13-.65.39-.832.26-.182.677-.28 1.251-.293l.601-.016v-.263a.65.65 0 0 0-.185-.488c-.124-.121-.315-.182-.575-.182a1.002 1.002 0 0 0-.511.137c-.145.089-.239.234-.282.435h-.53c.013-.218.075-.403.185-.552.111-.152.264-.267.462-.345.199-.078.434-.117.705-.117.292 0 .535.042.728.124.195.082.34.204.435.364.098.16.147.357.147.591v2.347h-.514l-.042-.631c-.13.263-.296.445-.497.546-.2.1-.42.15-.66.15Zm.182-.432a.963.963 0 0 0 .335-.062c.112-.041.215-.096.308-.166a.894.894 0 0 0 .221-.237.521.521 0 0 0 .088-.273v-.575l-.5.01c-.256.004-.471.03-.644.077a.764.764 0 0 0-.387.225.607.607 0 0 0-.126.399c0 .189.065.336.195.442.132.107.302.16.51.16Zm2.557.367v-3.361h.579v.488c.093-.147.221-.276.383-.387.163-.11.374-.166.634-.166a1.197 1.197 0 0 1 .722.247.872.872 0 0 1 .247.303 1.16 1.16 0 0 1 .422-.397c.178-.102.378-.153.601-.153.117 0 .24.019.368.056a.922.922 0 0 1 .354.188c.11.089.2.214.27.374.069.158.104.362.104.611v2.197h-.605v-2.139c0-.203-.032-.36-.097-.471a.543.543 0 0 0-.257-.237.82.82 0 0 0-.335-.068 1 1 0 0 0-.331.061.691.691 0 0 0-.299.208.598.598 0 0 0-.124.4v2.246h-.598v-2.314a.516.516 0 0 0-.107-.332.662.662 0 0 0-.263-.201.764.764 0 0 0-.312-.068.944.944 0 0 0-.348.068.696.696 0 0 0-.293.218.593.593 0 0 0-.117.383v2.246h-.598Zm6.96.065a1.61 1.61 0 0 1-.812-.198 1.362 1.362 0 0 1-.54-.589c-.128-.257-.192-.573-.192-.945 0-.351.06-.659.179-.923a1.38 1.38 0 0 1 .523-.615c.232-.147.513-.221.842-.221.31 0 .579.069.806.205.23.135.407.333.533.595.126.262.189.582.189.959 0 .342-.059.643-.176.903-.115.26-.286.464-.513.611-.226.145-.505.218-.839.218Zm0-.475c.202 0 .372-.05.51-.152a.935.935 0 0 0 .316-.439c.071-.191.107-.417.107-.679 0-.241-.032-.456-.094-.647a.95.95 0 0 0-.303-.458c-.136-.113-.315-.169-.536-.169a.864.864 0 0 0-.517.152.917.917 0 0 0-.321.436 1.945 1.945 0 0 0-.108.686c0 .236.033.45.098.643a.974.974 0 0 0 .305.458c.139.113.32.169.543.169Zm3.492.475a1.751 1.751 0 0 1-.497-.075 1.27 1.27 0 0 1-.41-.218 1.02 1.02 0 0 1-.282-.354 1.146 1.146 0 0 1-.101-.497v-2.282h.601v2.22c0 .219.067.397.202.533.136.137.341.205.614.205.247 0 .445-.064.595-.192.151-.13.227-.323.227-.578v-2.188h.598v3.361h-.478l-.061-.644a.886.886 0 0 1-.212.41.886.886 0 0 1-.354.231c-.136.047-.284.07-.442.068Zm2.529-.065v-3.361h.582v.488c.054-.093.129-.181.224-.263.098-.083.215-.149.351-.199.139-.049.298-.074.478-.074.212 0 .407.042.585.127.18.084.323.216.429.396.108.178.162.407.162.689v2.197h-.601v-2.139c0-.262-.069-.456-.208-.581a.747.747 0 0 0-.533-.192 1.2 1.2 0 0 0-.426.075.716.716 0 0 0-.321.221.55.55 0 0 0-.124.37v2.246h-.598Zm5.3-2.922h-.757v2.09c0 .119.012.207.036.263a.185.185 0 0 0 .127.104c.06.015.143.023.247.023h.367v.403a.945.945 0 0 1-.189.039 2.397 2.397 0 0 1-.308.016c-.232 0-.412-.031-.54-.094a.538.538 0 0 1-.27-.28 1.212 1.212 0 0 1-.074-.454v-2.11h-.546v-.439h.562l.146-.978h.442v.975h.757v.442Zm3.492 2.987c-.436 0-.782-.15-1.037-.449-.256-.299-.384-.735-.384-1.309 0-.349.051-.654.153-.914.104-.26.258-.461.462-.604.203-.143.457-.215.76-.215.16 0 .302.021.426.062.125.041.234.093.325.156a1.137 1.137 0 0 1 .351.38v-2.002h.604v4.83h-.458l-.065-.689a1.387 1.387 0 0 1-.104.227 1.118 1.118 0 0 1-.201.251c-.087.08-.199.146-.335.198-.135.052-.3.078-.497.078Zm.107-.462c.34 0 .583-.102.728-.308.147-.208.221-.547.221-1.018a2.066 2.066 0 0 0-.101-.669.809.809 0 0 0-.299-.419c-.134-.098-.313-.147-.536-.147a.857.857 0 0 0-.676.296c-.174.197-.26.51-.26.939 0 .421.078.747.234.979.158.232.388.347.689.347Zm2.975-1.144c0 .213.035.406.104.579a.93.93 0 0 0 .322.409.92.92 0 0 0 .543.153c.214 0 .398-.05.552-.149a.67.67 0 0 0 .299-.433h.569a1.14 1.14 0 0 1-.273.576 1.363 1.363 0 0 1-.51.354c-.2.078-.408.117-.624.117-.315 0-.591-.068-.829-.205a1.411 1.411 0 0 1-.559-.588c-.135-.256-.202-.562-.202-.92 0-.353.061-.663.182-.929a1.43 1.43 0 0 1 .527-.624c.232-.15.51-.225.835-.225.316 0 .584.069.803.205.219.137.384.33.497.579.115.247.172.54.172.88v.221h-2.408Zm.003-.406h1.827c0-.193-.033-.366-.098-.52a.791.791 0 0 0-.299-.367.862.862 0 0 0-.5-.137.858.858 0 0 0-.832.54c-.067.156-.1.317-.098.484Zm4.443 2.012c-.436 0-.781-.15-1.037-.449-.256-.299-.383-.735-.383-1.309 0-.349.051-.654.152-.914.104-.26.258-.461.462-.604.204-.143.457-.215.76-.215.161 0 .303.021.426.062.126.041.234.093.325.156a1.108 1.108 0 0 1 .351.38v-2.002h.605v4.83h-.459l-.065-.689a1.307 1.307 0 0 1-.104.227 1.064 1.064 0 0 1-.201.251c-.087.08-.198.146-.335.198-.134.052-.3.078-.497.078Zm.107-.462c.34 0 .583-.102.728-.308.147-.208.221-.547.221-1.018a2.066 2.066 0 0 0-.101-.669.803.803 0 0 0-.299-.419c-.134-.098-.313-.147-.536-.147a.859.859 0 0 0-.676.296c-.173.197-.26.51-.26.939 0 .421.078.747.234.979.158.232.388.347.689.347Zm3.781.462a1.751 1.751 0 0 1-.497-.075 1.265 1.265 0 0 1-.409-.218 1.011 1.011 0 0 1-.283-.354 1.16 1.16 0 0 1-.101-.497v-2.282h.601v2.22c0 .219.068.397.202.533.136.137.341.205.614.205.247 0 .445-.064.595-.192.152-.13.227-.323.227-.578v-2.188h.598v3.361h-.477l-.062-.644a.885.885 0 0 1-.211.41.897.897 0 0 1-.355.231c-.136.047-.283.07-.442.068Zm3.824-3.491c.241 0 .457.047.65.14.193.091.35.221.471.39.124.169.201.369.231.598h-.533a.765.765 0 0 0-.413-.556.88.88 0 0 0-.403-.087.885.885 0 0 0-.702.312c-.179.208-.269.526-.269.955 0 .388.082.699.247.933.166.232.411.348.734.348.154 0 .287-.03.4-.088a.78.78 0 0 0 .276-.237.788.788 0 0 0 .133-.319h.524a1.203 1.203 0 0 1-.702.969 1.508 1.508 0 0 1-.644.133c-.301 0-.569-.066-.803-.198a1.383 1.383 0 0 1-.546-.585c-.132-.258-.198-.574-.198-.949 0-.351.06-.658.179-.92.121-.264.297-.47.526-.618.232-.147.513-.221.842-.221Zm3.764.504h-.757v2.09c0 .119.012.207.036.263a.185.185 0 0 0 .127.104c.06.015.143.023.247.023h.367v.403a.945.945 0 0 1-.189.039 2.397 2.397 0 0 1-.308.016c-.232 0-.412-.031-.54-.094a.538.538 0 0 1-.27-.28 1.233 1.233 0 0 1-.074-.454v-2.11h-.546v-.439h.562l.146-.978h.442v.975h.757v.442Zm1.204 1.381c0 .213.035.406.104.579a.93.93 0 0 0 .322.409.92.92 0 0 0 .543.153c.214 0 .398-.05.552-.149a.67.67 0 0 0 .299-.433h.569a1.14 1.14 0 0 1-.273.576 1.363 1.363 0 0 1-.51.354c-.2.078-.408.117-.624.117-.315 0-.591-.068-.829-.205a1.411 1.411 0 0 1-.559-.588c-.135-.256-.202-.562-.202-.92 0-.353.061-.663.182-.929a1.43 1.43 0 0 1 .527-.624c.232-.15.51-.225.835-.225.316 0 .584.069.803.205.219.137.384.33.497.579.115.247.172.54.172.88v.221h-2.408Zm.003-.406h1.827c0-.193-.033-.366-.098-.52a.791.791 0 0 0-.299-.367.862.862 0 0 0-.5-.137.858.858 0 0 0-.832.54c-.067.156-.1.317-.098.484Zm4.443 2.012c-.436 0-.781-.15-1.037-.449-.256-.299-.383-.735-.383-1.309 0-.349.051-.654.152-.914.104-.26.258-.461.462-.604.204-.143.457-.215.76-.215.161 0 .303.021.426.062.126.041.234.093.325.156a1.108 1.108 0 0 1 .351.38v-2.002h.605v4.83h-.459l-.065-.689a1.307 1.307 0 0 1-.104.227 1.064 1.064 0 0 1-.201.251c-.087.08-.198.146-.335.198-.134.052-.3.078-.497.078Zm.107-.462c.34 0 .583-.102.728-.308.147-.208.221-.547.221-1.018a2.066 2.066 0 0 0-.101-.669.803.803 0 0 0-.299-.419c-.134-.098-.313-.147-.536-.147a.859.859 0 0 0-.676.296c-.173.197-.26.51-.26.939 0 .421.078.747.234.979.158.232.388.347.689.347Zm5.942-2.964v.439h-.815v2.922h-.605v-2.922h-.708v-.439h.708v-.52c0-.266.068-.469.205-.607.136-.141.34-.212.611-.212h.634l.003.426h-.504c-.136 0-.23.037-.279.111-.05.073-.075.185-.075.334v.468h.825Zm.743 3.361v-3.361h.572v.647c.056-.16.135-.292.237-.396a.992.992 0 0 1 .348-.238 1.11 1.11 0 0 1 .556-.068.32.32 0 0 1 .11.033v.581a.39.39 0 0 0-.126-.029 1.135 1.135 0 0 0-.127-.01 1.36 1.36 0 0 0-.377.026.854.854 0 0 0-.309.127.649.649 0 0 0-.211.241.773.773 0 0 0-.075.357v2.09h-.598Zm3.78.065c-.31 0-.581-.066-.813-.198a1.354 1.354 0 0 1-.539-.589c-.128-.257-.192-.573-.192-.945 0-.351.059-.659.179-.923.119-.265.293-.469.523-.615a1.54 1.54 0 0 1 .842-.221c.309 0 .578.069.806.205.229.135.407.333.533.595.125.262.188.582.188.959 0 .342-.058.643-.175.903-.115.26-.286.464-.514.611-.225.145-.505.218-.838.218Zm0-.475c.201 0 .371-.05.51-.152a.927.927 0 0 0 .315-.439c.072-.191.107-.417.107-.679 0-.241-.031-.456-.094-.647a.948.948 0 0 0-.302-.458c-.137-.113-.315-.169-.536-.169a.864.864 0 0 0-.517.152.925.925 0 0 0-.322.436 1.969 1.969 0 0 0-.107.686c0 .236.032.45.097.643a.968.968 0 0 0 .306.458c.139.113.319.169.543.169Zm2.314.41v-3.361h.578v.488c.093-.147.221-.276.384-.387.162-.11.374-.166.634-.166.121 0 .244.021.37.062.128.041.245.103.351.185a.86.86 0 0 1 .247.303c.104-.165.245-.297.423-.397.177-.102.378-.153.601-.153.117 0 .239.019.367.056a.95.95 0 0 1 .624.562c.069.158.104.362.104.611v2.197h-.604v-2.139c0-.203-.033-.36-.098-.471a.543.543 0 0 0-.257-.237.815.815 0 0 0-.334-.068c-.104 0-.215.02-.332.061a.691.691 0 0 0-.299.208.603.603 0 0 0-.123.4v2.246h-.598v-2.314a.511.511 0 0 0-.108-.332.656.656 0 0 0-.263-.201.764.764 0 0 0-.312-.068.944.944 0 0 0-.348.068.693.693 0 0 0-.292.218.593.593 0 0 0-.117.383v2.246h-.598Zm7.409 1.073c-.197 0-.333-.015-.406-.043l-.111-.042v-.39l.341.007c.126.004.23-.005.312-.026a.584.584 0 0 0 .199-.088.41.41 0 0 0 .113-.124.92.92 0 0 0 .069-.13l.117-.318-1.313-3.28h.607l.992 2.594.984-2.594h.589l-1.417 3.615a1.697 1.697 0 0 1-.293.497.88.88 0 0 1-.357.25 1.22 1.22 0 0 1-.426.072Zm4.349-1.008c-.309 0-.58-.066-.812-.198a1.362 1.362 0 0 1-.54-.589c-.127-.257-.191-.573-.191-.945 0-.351.059-.659.178-.923.12-.265.294-.469.524-.615.231-.147.512-.221.841-.221.31 0 .579.069.806.205.23.135.408.333.533.595.126.262.189.582.189.959 0 .342-.059.643-.176.903-.114.26-.286.464-.513.611-.225.145-.505.218-.839.218Zm0-.475c.202 0 .372-.05.511-.152a.94.94 0 0 0 .315-.439c.071-.191.107-.417.107-.679 0-.241-.031-.456-.094-.647a.955.955 0 0 0-.302-.458c-.137-.113-.316-.169-.537-.169a.86.86 0 0 0-.516.152.925.925 0 0 0-.322.436 1.946 1.946 0 0 0-.107.686c0 .236.032.45.097.643a.968.968 0 0 0 .306.458c.138.113.319.169.542.169Zm3.492.475a1.751 1.751 0 0 1-.497-.075 1.265 1.265 0 0 1-.409-.218 1.011 1.011 0 0 1-.283-.354 1.16 1.16 0 0 1-.101-.497v-2.282h.601v2.22c0 .219.068.397.202.533.136.137.341.205.614.205.247 0 .445-.064.595-.192.152-.13.227-.323.227-.578v-2.188h.598v3.361h-.477l-.062-.644a.885.885 0 0 1-.211.41.897.897 0 0 1-.355.231c-.136.047-.283.07-.442.068Zm2.53-.065v-3.361h.572v.647c.056-.16.135-.292.237-.396a.992.992 0 0 1 .348-.238 1.105 1.105 0 0 1 .555-.068.319.319 0 0 1 .111.033v.581a.404.404 0 0 0-.127-.029 1.118 1.118 0 0 0-.127-.01c-.134-.008-.26 0-.377.026a.842.842 0 0 0-.308.127.651.651 0 0 0-.212.241.773.773 0 0 0-.074.357v2.09h-.598Zm-108.225 9.065a1.37 1.37 0 0 1-.575-.114.93.93 0 0 1-.394-.335.953.953 0 0 1-.139-.526c0-.373.13-.65.39-.832.26-.182.677-.28 1.251-.293l.601-.016v-.263a.65.65 0 0 0-.185-.488c-.124-.121-.315-.182-.575-.182a1.002 1.002 0 0 0-.511.137c-.145.089-.239.234-.282.435h-.53c.013-.218.075-.403.185-.552.111-.152.264-.267.462-.345.199-.078.434-.117.705-.117.292 0 .535.042.728.124.195.082.34.204.435.364.098.16.147.357.147.591v2.347h-.514l-.042-.631c-.13.263-.296.445-.497.546-.2.1-.42.15-.66.15Zm.182-.432a.963.963 0 0 0 .335-.062c.112-.041.215-.096.308-.166a.894.894 0 0 0 .221-.237.521.521 0 0 0 .088-.273v-.575l-.5.01c-.256.004-.471.03-.644.077a.764.764 0 0 0-.387.225.607.607 0 0 0-.126.399c0 .189.065.336.195.442.132.107.302.16.51.16Zm3.896-3.059c.241 0 .457.047.65.14.193.091.35.221.471.39.124.169.201.369.231.598h-.533a.765.765 0 0 0-.413-.556.88.88 0 0 0-.403-.087.885.885 0 0 0-.702.312c-.179.208-.269.526-.269.955 0 .388.082.699.247.933.167.232.411.348.734.348.154 0 .287-.03.4-.088a.774.774 0 0 0 .409-.556h.524a1.194 1.194 0 0 1-.228.585 1.24 1.24 0 0 1-.474.384 1.505 1.505 0 0 1-.644.133c-.301 0-.569-.066-.803-.198a1.383 1.383 0 0 1-.546-.585c-.132-.258-.198-.574-.198-.949 0-.351.06-.658.179-.92.121-.264.297-.47.526-.618.232-.147.513-.221.842-.221Zm3.504 0c.241 0 .457.047.65.14.193.091.35.221.471.39.124.169.201.369.231.598h-.533a.765.765 0 0 0-.413-.556.88.88 0 0 0-.403-.087.885.885 0 0 0-.702.312c-.179.208-.269.526-.269.955 0 .388.082.699.247.933.166.232.411.348.734.348.154 0 .287-.03.4-.088a.78.78 0 0 0 .276-.237.788.788 0 0 0 .133-.319h.524a1.203 1.203 0 0 1-.702.969 1.508 1.508 0 0 1-.644.133c-.301 0-.569-.066-.803-.198a1.383 1.383 0 0 1-.546-.585c-.132-.258-.198-.574-.198-.949 0-.351.06-.658.179-.92.121-.264.297-.47.526-.618.232-.147.513-.221.842-.221Zm3.501 3.491c-.31 0-.581-.066-.813-.198a1.36 1.36 0 0 1-.539-.589c-.128-.257-.192-.573-.192-.945 0-.351.06-.659.179-.923.119-.265.293-.469.523-.615a1.54 1.54 0 0 1 .842-.221c.31 0 .578.069.806.205.229.135.407.333.533.595.125.262.188.582.188.959 0 .342-.058.643-.175.903-.115.26-.286.464-.514.611-.225.145-.505.218-.838.218Zm0-.475c.201 0 .371-.05.51-.152a.927.927 0 0 0 .315-.439c.072-.191.108-.417.108-.679 0-.241-.032-.456-.095-.647a.948.948 0 0 0-.302-.458c-.136-.113-.315-.169-.536-.169a.864.864 0 0 0-.517.152.925.925 0 0 0-.322.436 1.969 1.969 0 0 0-.107.686c0 .236.033.45.098.643a.967.967 0 0 0 .305.458c.139.113.32.169.543.169Zm3.492.475a1.746 1.746 0 0 1-.497-.075 1.27 1.27 0 0 1-.41-.218 1.034 1.034 0 0 1-.283-.354 1.16 1.16 0 0 1-.1-.497v-2.282h.601v2.22c0 .219.067.397.201.533.137.137.342.205.615.205.247 0 .445-.064.594-.192.152-.13.228-.323.228-.578v-2.188h.598v3.361h-.478l-.062-.644a.875.875 0 0 1-.211.41.893.893 0 0 1-.354.231 1.3 1.3 0 0 1-.442.068Zm2.529-.065v-3.361h.582v.488c.054-.093.129-.181.224-.263.097-.083.214-.149.351-.199.139-.049.298-.074.478-.074.212 0 .407.042.585.127.18.084.323.216.429.396.108.178.162.407.162.689v2.197h-.601v-2.139c0-.262-.069-.456-.208-.581a.748.748 0 0 0-.533-.192c-.152 0-.294.025-.426.075a.725.725 0 0 0-.322.221.555.555 0 0 0-.123.37v2.246h-.598Zm5.3-2.922h-.757v2.09c0 .119.012.207.036.263a.186.186 0 0 0 .126.104c.061.015.143.023.247.023h.368v.403a.962.962 0 0 1-.189.039 2.404 2.404 0 0 1-.309.016c-.232 0-.411-.031-.539-.094a.538.538 0 0 1-.27-.28 1.211 1.211 0 0 1-.075-.454v-2.11h-.546v-.439h.563l.146-.978h.442v.975h.757v.442Zm3.012-.439v3.361h-.582v-3.361h.582Zm.013-1.335v.624h-.615v-.624h.615Zm2.237 4.761c-.234 0-.452-.036-.653-.107a1.184 1.184 0 0 1-.498-.342 1.155 1.155 0 0 1-.25-.594h.546c.03.132.085.242.163.331.08.087.179.153.299.198.119.044.249.065.39.065.225 0 .407-.042.546-.126a.427.427 0 0 0 .208-.39.399.399 0 0 0-.111-.296.647.647 0 0 0-.335-.166l-.695-.172a1.531 1.531 0 0 1-.65-.306c-.163-.138-.244-.332-.244-.581a.922.922 0 0 1 .14-.52.96.96 0 0 1 .429-.355c.19-.086.428-.13.712-.13.364 0 .657.083.88.247.226.163.343.402.351.719h-.529a.554.554 0 0 0-.218-.381c-.122-.095-.285-.143-.491-.143a.956.956 0 0 0-.523.13c-.135.085-.202.217-.202.397 0 .119.048.213.143.283.096.067.236.123.423.169l.673.169c.156.041.283.095.383.162a.902.902 0 0 1 .241.224.917.917 0 0 1 .165.517.908.908 0 0 1-.156.533.996.996 0 0 1-.442.345c-.19.08-.422.12-.695.12Zm7.3-1.856c0 .379-.062.709-.185.988a1.344 1.344 0 0 1-.601.644c-.275.149-.641.224-1.096.224-.457 0-.823-.076-1.098-.228a1.35 1.35 0 0 1-.598-.653c-.121-.281-.182-.617-.182-1.007V937.8h.965v2.948c0 .351.085.608.254.77.169.161.389.241.659.241.18 0 .34-.035.478-.104a.757.757 0 0 0 .325-.328c.08-.15.12-.343.12-.579V937.8h.959v2.909Zm2.708 1.856c-.232 0-.459-.029-.682-.088a2.131 2.131 0 0 1-.611-.263 1.573 1.573 0 0 1-.458-.439 1.305 1.305 0 0 1-.215-.617h.972a.756.756 0 0 0 .185.36.885.885 0 0 0 .345.225 1.3 1.3 0 0 0 .461.078c.173 0 .332-.022.475-.065a.822.822 0 0 0 .344-.195c.087-.089.13-.2.13-.332a.41.41 0 0 0-.107-.292.767.767 0 0 0-.283-.186 2.455 2.455 0 0 0-.406-.117l-.813-.165c-.355-.067-.637-.208-.845-.423-.208-.216-.315-.505-.321-.864-.003-.295.075-.55.234-.764.16-.217.377-.384.65-.501.275-.117.582-.175.923-.175.405 0 .745.064 1.02.192.277.125.488.297.631.513a1.3 1.3 0 0 1 .224.718h-.952a.72.72 0 0 0-.15-.393.692.692 0 0 0-.318-.211 1.379 1.379 0 0 0-.439-.065c-.126 0-.241.014-.345.042a.8.8 0 0 0-.26.12.55.55 0 0 0-.165.179.473.473 0 0 0-.059.234c0 .137.046.247.137.332.091.084.261.154.51.208l.806.165c.288.057.517.14.686.251a1.19 1.19 0 0 1 .552.799c.028.143.042.275.042.397 0 .253-.08.482-.24.685a1.607 1.607 0 0 1-.663.481 2.581 2.581 0 0 1-.995.176Zm5.891 0c-.563 0-1.02-.113-1.371-.338-.351-.228-.553-.577-.605-1.05l.988-.019a.783.783 0 0 0 .335.49c.173.111.39.166.65.166.156 0 .293-.025.413-.075a.725.725 0 0 0 .286-.208.477.477 0 0 0 .104-.302c0-.173-.056-.302-.166-.387-.111-.086-.281-.156-.51-.208l-.771-.165c-.357-.072-.644-.214-.861-.426-.214-.215-.324-.502-.328-.861-.002-.295.077-.55.237-.764.163-.217.383-.384.66-.501.279-.117.592-.175.939-.175.355 0 .662.064.92.192.26.125.459.295.598.51.141.212.209.447.205.705l-.959.016a.902.902 0 0 0-.208-.49c-.108-.119-.288-.179-.54-.179-.13 0-.246.014-.347.042a.843.843 0 0 0-.264.12.542.542 0 0 0-.169.179.505.505 0 0 0-.055.234.41.41 0 0 0 .137.325c.093.078.267.151.523.218l.757.185c.427.102.735.276.923.523.191.247.286.548.286.901 0 .271-.075.507-.224.708a1.41 1.41 0 0 1-.627.468c-.271.111-.59.166-.956.166Zm-.406-5.437h.822v.845h-.822v-.845Zm-.016 5.148h.819v.845h-.819v-.845Zm3.667.224v-3.52h-.839v-.536a2.3 2.3 0 0 0 .65-.075.785.785 0 0 0 .374-.221.635.635 0 0 0 .146-.348h.631v4.7h-.962Zm3.761-4.765c.559 0 1 .21 1.323.628.323.416.484 1.015.484 1.797 0 .778-.159 1.375-.477 1.791-.319.414-.762.621-1.33.621-.569 0-1.015-.207-1.335-.621-.319-.414-.478-1.01-.478-1.788 0-.52.074-.961.221-1.323.147-.361.356-.635.627-.822.271-.188.593-.283.965-.283Zm0 4.06c.28 0 .485-.125.615-.374.13-.251.195-.671.195-1.258 0-.6-.066-1.03-.199-1.29-.132-.26-.336-.39-.614-.39-.277 0-.484.131-.621.393-.134.262-.201.691-.201 1.287 0 .585.067 1.003.201 1.255a.665.665 0 0 0 .624.377Zm4.486-3.995h.933v2.864h.725v.796h-.725v1.04h-.913l.003-1.04h-2.165v-.78l2.142-2.88Zm-1.264 2.864h1.287v-1.723l-1.287 1.723Zm3.43 1.836v-1.034h1.04v1.034h-1.04Zm3.442.072c-.292 0-.565-.057-.819-.17a1.59 1.59 0 0 1-.62-.474 1.287 1.287 0 0 1-.27-.722h.903a.789.789 0 0 0 .26.446.768.768 0 0 0 .507.169c.226 0 .423-.053.592-.16.171-.106.299-.275.383-.507.087-.231.117-.535.091-.91a.958.958 0 0 1-.253.303c-.106.084-.231.15-.374.198a1.586 1.586 0 0 1-.478.068c-.318 0-.601-.059-.848-.179a1.405 1.405 0 0 1-.578-.513 1.47 1.47 0 0 1-.208-.793c0-.308.073-.582.221-.822a1.53 1.53 0 0 1 .617-.566c.264-.136.574-.205.93-.205.398 0 .742.096 1.03.286.29.189.512.458.666.807.156.346.234.755.234 1.225 0 .561-.08 1.029-.24 1.404-.159.372-.386.652-.683.838-.297.184-.651.277-1.063.277Zm.085-2.513c.132 0 .26-.029.383-.088a.947.947 0 0 0 .309-.227.425.425 0 0 0 .12-.283c.002-.21-.031-.39-.1-.539a.782.782 0 0 0-.286-.348.76.76 0 0 0-.426-.12.733.733 0 0 0-.676.396.914.914 0 0 0-.101.436c0 .245.072.435.215.572.143.134.33.201.562.201Zm4.269-2.324c.559 0 1 .21 1.322.628.323.416.485 1.015.485 1.797 0 .778-.16 1.375-.478 1.791-.319.414-.762.621-1.329.621-.57 0-1.015-.207-1.336-.621-.319-.414-.478-1.01-.478-1.788 0-.52.074-.961.221-1.323.148-.361.357-.635.627-.822.271-.188.593-.283.966-.283Zm0 4.06a.648.648 0 0 0 .614-.374c.13-.251.195-.671.195-1.258 0-.6-.066-1.03-.198-1.29s-.337-.39-.615-.39c-.277 0-.484.131-.62.393-.135.262-.202.691-.202 1.287 0 .585.067 1.003.202 1.255a.663.663 0 0 0 .624.377Zm2.447.705v-.767h.715v.767h-.715Z" fill="#36536B"/></g><defs><linearGradient id="c" x1="402.055" y1="799" x2="402.055" y2="806.394" gradientUnits="userSpaceOnUse"><stop stop-color="#454545"/><stop offset=".226" stop-color="#999"/><stop offset="1" stop-color="#fff"/></linearGradient><linearGradient id="d" x1="553.249" y1="850.448" x2="547.529" y2="850.448" gradientUnits="userSpaceOnUse"><stop stop-color="#fff" stop-opacity=".01"/><stop offset=".222" stop-color="#BABABA"/><stop offset=".547" stop-color="#fff" stop-opacity=".01"/><stop offset="1" stop-color="#fff" stop-opacity=".01"/></linearGradient><linearGradient id="e" x1="397.552" y1="850.292" x2="403.281" y2="850.292" gradientUnits="userSpaceOnUse"><stop stop-color="#fff" stop-opacity=".01"/><stop offset=".222" stop-color="#BABABA"/><stop offset=".547" stop-color="#fff" stop-opacity=".01"/><stop offset="1" stop-color="#fff" stop-opacity=".01"/></linearGradient><linearGradient id="g" x1="405.549" y1="806" x2="405.549" y2="1082.83" gradientUnits="userSpaceOnUse"><stop stop-color="#9CB6CD"/><stop offset=".421" stop-color="#9AB3CA"/><stop offset=".717" stop-color="#557496"/><stop offset="1" stop-color="#475178"/></linearGradient><filter id="b" x="342.552" y="744.342" width="315.765" height="459.317" filterUnits="userSpaceOnUse" color-interpolation-filters="sRGB"><feFlood flood-opacity="0" result="BackgroundImageFix"/><feColorMatrix in="SourceAlpha" values="0 0 0 0 0 0 0 0 0 0 0 0 0 0 0 0 0 0 127 0" result="hardAlpha"/><feOffset dx="25" dy="25"/><feGaussianBlur stdDeviation="40"/><feColorMatrix values="0 0 0 0 0.212302 0 0 0 0 0.32521 0 0 0 0 0.419299 0 0 0 0.300727 0"/><feBlend in2="BackgroundImageFix" result="effect1_dropShadow_2112_2"/><feBlend in="SourceGraphic" in2="effect1_dropShadow_2112_2" result="shape"/></filter><filter id="i" x="403.805" y="894" width="161.255" height="83.191" filterUnits="userSpaceOnUse" color-interpolation-filters="sRGB"><feFlood flood-opacity="0" result="BackgroundImageFix"/><feColorMatrix in="SourceAlpha" values="0 0 0 0 0 0 0 0 0 0 0 0 0 0 0 0 0 0 127 0" result="hardAlpha"/><feMorphology radius="10" in="SourceAlpha" result="effect1_dropShadow_2112_2"/><feOffset dx="10" dy="10"/><feGaussianBlur stdDeviation="12.5"/><feColorMatrix values="0 0 0 0 0.212302 0 0 0 0 0.32521 0 0 0 0 0.419299 0 0 0 0.25 0"/><feBlend in2="BackgroundImageFix" result="effect1_dropShadow_2112_2"/><feBlend in="SourceGraphic" in2="effect1_dropShadow_2112_2" result="shape"/></filter><clipPath id="h"><path fill="#fff" transform="translate(408.805 899)" d="M0 0h132v54H0z"/></clipPath></defs></svg>